<svg width="28" height="28" viewBox="0 0 28 28" fill="none" xmlns="http://www.w3.org/2000/svg">
<g id="Frame">
<path id="Vector" fill-rule="evenodd" clip-rule="evenodd" d="M17.4094 2.83311C15.4793 1.00007 12.5208 1.00007 10.5906 2.83311C9.09731 4.25129 7.26752 6.20615 5.8057 8.44847C4.35045 10.6807 3.20837 13.2763 3.20837 15.9577C3.20837 21.1702 7.30039 26.5417 14 26.5417C20.6997 26.5417 24.7917 21.1702 24.7917 15.9577C24.7917 13.2763 23.6497 10.6807 22.1944 8.44847C20.7325 6.20615 18.9027 4.25129 17.4094 2.83311ZM17.5 16.3332C17.5 18.2663 15.9331 19.8332 14 19.8332C13.3557 19.8332 12.8334 20.3556 12.8334 20.9999C12.8334 21.6442 13.3557 22.1665 14 22.1665C17.2217 22.1665 19.8334 19.555 19.8334 16.3332C19.8334 15.689 19.3111 15.1665 18.6667 15.1665C18.0224 15.1665 17.5 15.689 17.5 16.3332Z" fill="#FF6F61"/>
</g>
</svg>
