<svg width="14" height="14" viewBox="0 0 14 14" fill="none" xmlns="http://www.w3.org/2000/svg">
<g id="Frame">
<path id="Vector" d="M4.65243 10.2262C4.72317 10.5405 4.52573 10.8526 4.21143 10.9234C3.70542 11.0373 3.33093 11.1737 3.09793 11.307C3.05129 11.3336 3.01527 11.3571 2.98759 11.377C2.99809 11.3846 3.00975 11.3927 3.0227 11.4013C3.18723 11.5106 3.4638 11.6315 3.85786 11.7422C4.63789 11.9612 5.74901 12.1043 7 12.1043C8.25102 12.1043 9.36209 11.9612 10.1421 11.7422C10.5362 11.6315 10.8128 11.5106 10.9773 11.4013C10.9902 11.3927 11.0019 11.3846 11.0124 11.377C10.9847 11.3571 10.9487 11.3336 10.9021 11.307C10.6691 11.1737 10.2946 11.0373 9.78857 10.9234C9.47427 10.8526 9.27681 10.5405 9.34757 10.2262C9.41832 9.91188 9.73047 9.71442 10.0448 9.78518C10.6056 9.91141 11.1061 10.0796 11.4814 10.2943C11.8149 10.4851 12.25 10.8309 12.25 11.3773C12.25 11.859 11.9079 12.1838 11.6226 12.3733C11.3148 12.5776 10.908 12.7389 10.4575 12.8654C9.54852 13.1207 8.32632 13.2709 7 13.2709C5.67367 13.2709 4.45145 13.1207 3.54247 12.8654C3.09203 12.7389 2.68518 12.5776 2.37743 12.3733C2.09209 12.1838 1.75 11.859 1.75 11.3773C1.75 10.8309 2.18504 10.4851 2.51859 10.2943C2.89387 10.0796 3.39438 9.91141 3.95523 9.78518C4.26954 9.71442 4.58168 9.91188 4.65243 10.2262Z" fill="#8E8E8E"/>
<path id="Vector_2" opacity="0.4" d="M2.82421 3.50918C3.53034 1.81121 5.22059 0.729168 7.00025 0.729168C8.77994 0.729168 10.4702 1.81121 11.1763 3.50918C11.8329 5.088 11.4768 6.4365 10.7395 7.5852C10.1307 8.5337 9.23961 9.37819 8.44697 10.1293C8.30668 10.2623 8.16919 10.3925 8.03718 10.5197C7.75876 10.7879 7.38688 10.9375 7.00025 10.9375C6.61362 10.9375 6.2418 10.7879 5.96337 10.5197L5.96244 10.5188C5.82279 10.3835 5.67717 10.245 5.52814 10.1032C4.74389 9.35731 3.86486 8.52128 3.26239 7.58468C2.52421 6.43708 2.16683 5.08995 2.82421 3.50918Z" fill="#8E8E8E"/>
<path id="Vector_3" d="M5.25 5.25C5.25 4.2835 6.03347 3.5 7 3.5C7.96652 3.5 8.75 4.2835 8.75 5.25C8.75 6.21652 7.96652 7 7 7C6.03347 7 5.25 6.21652 5.25 5.25Z" fill="#8E8E8E"/>
</g>
</svg>
