<svg width="16" height="16" viewBox="0 0 16 16" fill="none" xmlns="http://www.w3.org/2000/svg">
<g id="Frame">
<path id="Vector" d="M9.04317 10.1465C9.42324 10.352 10.0195 10.6744 10.4273 11.0574C10.6813 11.2959 10.944 11.6288 10.9922 12.0521C11.0444 12.5102 10.8324 12.9237 10.4515 13.2719C9.81217 13.8563 9.03484 14.3333 8.02664 14.3333H3.30681C2.29857 14.3333 1.52122 13.8563 0.881907 13.2719C0.501028 12.9237 0.289012 12.5102 0.3412 12.0521C0.389429 11.6288 0.652128 11.2959 0.90608 11.0574C1.31394 10.6744 1.91011 10.352 2.29019 10.1465C2.37481 10.1007 2.44873 10.0607 2.50747 10.0272C4.4423 8.92186 6.89111 8.92186 8.82597 10.0272C8.88464 10.0607 8.95857 10.1007 9.04317 10.1465Z" fill="#8B4513"/>
<path id="Vector_2" d="M2.39783 4.91893C2.39783 3.12275 3.86129 1.66667 5.66655 1.66667C7.47184 1.66667 8.93531 3.12275 8.93531 4.91893C8.93531 6.71507 7.47184 8.17121 5.66655 8.17121C3.86129 8.17121 2.39783 6.71507 2.39783 4.91893Z" fill="#8B4513"/>
<path id="Vector_3" d="M9.18508 7.3104C9.04801 7.4938 8.97948 7.58553 9.00541 7.67627C9.03141 7.76707 9.12274 7.80853 9.30541 7.89153C9.68548 8.0642 10.1141 8.16127 10.5677 8.16127C12.1321 8.16127 13.4003 7.00587 13.4003 5.58065C13.4003 4.15539 12.1321 3 10.5677 3C10.3971 3 10.23 3.01374 10.0677 3.04007C9.86674 3.07268 9.76628 3.08898 9.71321 3.16948C9.66014 3.24998 9.69768 3.35571 9.77281 3.56717C9.92108 3.98463 10.0011 4.43003 10.0011 4.89247C10.0011 5.78895 9.70014 6.62136 9.18508 7.3104Z" fill="#8B4513"/>
<path id="Vector_4" d="M12.5953 13.6667C13.6166 13.6667 14.4109 13.2692 15.0714 12.7731C15.4629 12.4791 15.7194 12.1004 15.6574 11.6537C15.6018 11.2525 15.3042 10.9539 15.0474 10.7557C14.6266 10.4311 14.0128 10.1585 13.6261 9.98667C13.5407 9.94873 13.4664 9.91567 13.4076 9.88813C12.654 9.53433 11.8248 9.31567 10.9779 9.2322C10.4317 9.1784 10.1586 9.15147 10.0962 9.30007C10.0338 9.44867 10.277 9.60787 10.7634 9.9262C10.948 10.0471 11.1268 10.1767 11.2836 10.3115C11.6366 10.6151 12.1542 11.1615 12.2518 11.9457C12.297 12.3092 12.2446 12.6441 12.1268 12.9466C11.9866 13.3069 11.9164 13.487 11.9771 13.5724C11.981 13.5779 11.9834 13.5809 11.9877 13.5861C12.0558 13.6667 12.2356 13.6667 12.5953 13.6667Z" fill="#8B4513"/>
</g>
</svg>
