<svg width="25" height="28" viewBox="0 0 25 28" fill="none" xmlns="http://www.w3.org/2000/svg">
<g id="Frame">
<path id="Vector" fill-rule="evenodd" clip-rule="evenodd" d="M14.323 16.9785C14.9376 17.2226 15.6564 17.7671 16.0835 18.1928C16.9485 19.0547 17.8025 20.4359 17.7915 22.4608V25.8417C17.7915 26.1716 17.7915 26.3367 17.8941 26.4391C17.9966 26.5417 18.1616 26.5417 18.4915 26.5417H19.8909C20.6665 26.5417 21.3349 26.5418 21.8702 26.4698C22.4437 26.3927 22.9936 26.2187 23.4395 25.7728C23.8854 25.3268 24.0593 24.7771 24.1364 24.2034C24.2084 23.6683 24.2083 22.9999 24.2083 22.2243V17.4424C24.2083 16.6668 24.2084 15.9984 24.1364 15.4632C24.0593 14.8896 23.8854 14.3399 23.4395 13.8938C22.9947 13.4491 22.4467 13.2749 21.875 13.1976V12.7812C21.8751 12.2763 21.8751 11.8132 21.8244 11.4366C21.7687 11.0219 21.6375 10.5835 21.2769 10.223C20.9164 9.86248 20.4781 9.73129 20.0634 9.67553C19.9372 9.65857 19.8014 9.6473 19.6576 9.63981C19.9967 9.01089 20.1533 8.37975 20.1209 7.74386C20.0642 6.63136 19.4379 5.7357 18.743 5.03492C18.0671 4.35336 17.2173 3.75017 16.4845 3.23005C15.6889 2.66518 15.014 2.17525 14.6666 1.76663C14.5003 1.57105 14.2566 1.45832 14 1.45834C13.7433 1.45835 13.4995 1.57107 13.3332 1.76666C12.986 2.17526 12.311 2.66526 11.5154 3.23012C10.7827 3.75022 9.9329 4.3534 9.25704 5.03492C8.56209 5.73569 7.93587 6.63136 7.87914 7.74385C7.8467 8.37974 8.00325 9.01089 8.34242 9.6398C8.19856 9.6473 8.06271 9.65857 7.93656 9.67553C7.52183 9.73129 7.08348 9.86248 6.72296 10.223C6.36244 10.5835 6.23124 11.0219 6.17549 11.4366C6.12486 11.8132 6.1249 12.2761 6.12496 12.7812L6.12497 12.8333V13.1976C5.55314 13.2749 5.00518 13.4491 4.56048 13.8938C4.11453 14.3399 3.94062 14.8896 3.86351 15.4632C3.79156 15.9984 3.79159 16.6667 3.79163 17.4423L3.79164 17.5L3.79163 22.2243C3.79159 22.9999 3.79156 23.6683 3.86351 24.2034C3.94062 24.7771 4.11453 25.3268 4.56048 25.7728C5.00643 26.2187 5.55625 26.3927 6.12981 26.4698C6.66499 26.5418 7.33328 26.5417 8.10889 26.5417H9.5084C9.83839 26.5417 10.0034 26.5417 10.1059 26.4391C10.2084 26.3367 10.2084 26.1716 10.2084 25.8417V22.4608C10.1975 20.4359 11.0515 19.0547 11.9164 18.1928C12.3435 17.7671 13.0019 17.2772 13.6769 16.9785C13.8843 16.896 14.1156 16.896 14.323 16.9785ZM7.87497 13.125V12.8333C7.87497 12.2586 7.87683 11.9156 7.90988 11.6698C7.92502 11.5571 7.94287 11.5007 7.95333 11.4753L7.95649 11.468L7.95881 11.4633L7.96041 11.4605L7.96325 11.4589C7.96551 11.4577 7.96938 11.4558 7.97526 11.4534C8.00067 11.4429 8.05709 11.4251 8.16974 11.4099C8.41558 11.3769 8.75859 11.375 9.33331 11.375H18.6666C19.2413 11.375 19.5843 11.3769 19.8301 11.4099C19.9428 11.4251 19.9993 11.4429 20.0246 11.4534L20.0308 11.456L20.0366 11.4589L20.0396 11.4605L20.0411 11.4633L20.0441 11.4696L20.0466 11.4753C20.0571 11.5007 20.0749 11.5571 20.0901 11.6698C20.1231 11.9156 20.125 12.2586 20.125 12.8333V13.125C20.0481 13.125 19.9701 13.125 19.8909 13.125H8.16664H8.10903C8.02991 13.125 7.95183 13.125 7.87497 13.125ZM15.939 26.4391C15.8365 26.5417 15.6716 26.5417 15.3415 26.5417H12.6584C12.3284 26.5417 12.1634 26.5417 12.061 26.4391C11.9584 26.3367 11.9584 26.1716 11.9584 25.8417V22.4583V22.4533C11.9499 20.9796 12.5538 20.0282 13.1518 19.4322C13.4563 19.1288 13.7623 18.9158 13.9897 18.7801C13.996 18.7763 14.0039 18.7763 14.0102 18.7801C14.2376 18.9158 14.5436 19.1288 14.8481 19.4322C15.4462 20.0282 16.05 20.9796 16.0415 22.4533V25.8417C16.0415 26.1716 16.0415 26.3367 15.939 26.4391Z" fill="#FEA800"/>
</g>
</svg>
