<svg width="28" height="28" viewBox="0 0 28 28" fill="none" xmlns="http://www.w3.org/2000/svg">
<g id="Frame">
<path id="Vector" fill-rule="evenodd" clip-rule="evenodd" d="M7.29163 8.16667C7.29163 4.46176 10.295 1.45834 14 1.45834C17.7048 1.45834 20.7084 4.46176 20.7084 8.16667C20.7084 11.8715 17.7049 14.875 14.0001 14.875C10.2952 14.875 7.29163 11.8715 7.29163 8.16667ZM11.4656 3.90403C10.0141 4.76893 9.04163 6.35423 9.04163 8.16666C9.04163 9.97907 10.0141 11.5644 11.4656 12.4293C11.037 11.2703 10.7916 9.77245 10.7916 8.16666C10.7916 6.56086 11.037 5.06297 11.4656 3.90403ZM16.5344 3.90403C17.986 4.76893 18.9584 6.35423 18.9584 8.16666C18.9584 9.97907 17.986 11.5644 16.5344 12.4293C16.9629 11.2703 17.2084 9.77245 17.2084 8.16666C17.2084 6.56086 16.9629 5.06297 16.5344 3.90403ZM13.7274 3.39297C13.9023 3.2081 13.9947 3.20832 14 3.20834C14.0052 3.20832 14.0977 3.2081 14.2726 3.39297C14.4504 3.581 14.6508 3.90004 14.8375 4.36685C15.2091 5.2956 15.4584 6.63866 15.4584 8.16667C15.4584 9.69468 15.2091 11.0377 14.8375 11.9665C14.6508 12.4333 14.4504 12.7524 14.2726 12.9403C14.1009 13.122 14.0082 13.125 14 13.125C13.9918 13.125 13.8992 13.122 13.7274 12.9403C13.5496 12.7524 13.3492 12.4333 13.1624 11.9665C12.7909 11.0377 12.5416 9.69468 12.5416 8.16667C12.5416 6.63866 12.7909 5.2956 13.1624 4.36685C13.3492 3.90004 13.5496 3.581 13.7274 3.39297Z" fill="#8B4513"/>
<path id="Vector_2" fill-rule="evenodd" clip-rule="evenodd" d="M6.37375 4.11988C6.28919 3.97082 6.07762 3.94013 5.65447 3.87873C5.29629 3.82675 4.96325 3.79382 4.65637 3.79177C3.89842 3.78673 3.22078 3.96652 2.60495 4.50152C1.97183 5.05155 1.69809 5.75901 1.57391 6.56764C1.45829 7.32053 1.45833 8.26805 1.45838 9.39459L1.45839 18.043C1.45836 19.0839 1.45835 19.9376 1.531 20.6129C1.60595 21.3094 1.76884 21.9487 2.19248 22.4804C2.63333 23.0335 3.27854 23.3242 3.9872 23.5377C4.69128 23.75 5.6181 23.9288 6.76489 24.1501L6.81371 24.1596C8.84705 24.5522 10.415 25.1739 11.5302 25.784L11.5519 25.7959C12.1222 26.1079 12.5783 26.3575 12.9272 26.5276C13.0195 26.5726 13.125 26.5043 13.125 26.4014V17.2121C13.125 16.9174 13.125 16.7701 13.0435 16.6726C12.9618 16.5751 12.8077 16.5475 12.4992 16.4922C8.54374 15.784 5.54171 12.3258 5.54171 8.16667C5.54171 7.01554 5.77166 5.91812 6.18815 4.91783C6.36826 4.48522 6.45832 4.26892 6.37375 4.11988ZM14.9566 16.6726C14.875 16.7701 14.875 16.9174 14.875 17.2121V26.4014C14.875 26.5043 14.9806 26.5726 15.0729 26.5276C15.4217 26.3575 15.8778 26.108 16.4481 25.7961L16.4699 25.784C17.5851 25.1739 19.1531 24.5522 21.1864 24.1596L21.235 24.1502C22.3818 23.9288 23.3088 23.75 24.013 23.5377C24.7216 23.3242 25.3668 23.0335 25.8076 22.4804C26.2313 21.9487 26.3941 21.3094 26.4691 20.6129C26.5417 19.9376 26.5417 19.0839 26.5417 18.043V9.39464C26.5417 8.26809 26.5418 7.32054 26.4262 6.56764C26.302 5.75901 26.0283 5.05155 25.3951 4.50152C24.7793 3.96652 24.1016 3.78673 23.3438 3.79177C23.0368 3.79382 22.7038 3.82675 22.3457 3.87873C21.9224 3.94013 21.7109 3.97083 21.6263 4.11988C21.5417 4.26892 21.6318 4.48523 21.8119 4.91783C22.2284 5.91812 22.4584 7.01554 22.4584 8.16667C22.4584 12.3258 19.4563 15.784 15.5008 16.4922C15.1925 16.5475 15.0383 16.5751 14.9566 16.6726Z" fill="#8B4513"/>
</g>
</svg>
