<svg width="28" height="28" viewBox="0 0 28 28" fill="none" xmlns="http://www.w3.org/2000/svg">
<g id="Frame">
<path id="Vector" fill-rule="evenodd" clip-rule="evenodd" d="M14.9188 3.79167C14.5443 3.79167 14.1946 3.98662 13.9869 4.31119L13.5727 4.95834H21.1261L21.008 4.5894C20.8556 4.113 20.4275 3.79167 19.9455 3.79167H14.9188ZM23.4873 4.95834L23.133 3.85154C22.6757 2.42234 21.3917 1.45834 19.9455 1.45834H14.9188C13.7953 1.45834 12.7462 2.04319 12.1231 3.01689L11.2131 4.43882C11.0053 4.76339 10.6556 4.95834 10.2811 4.95834H4.19996C3.5814 4.95834 3.07996 5.48068 3.07996 6.125C3.07996 6.76933 3.5814 7.29167 4.19996 7.29167H22.6539C22.6711 7.29209 22.6885 7.29209 22.7058 7.29167H24.36C24.9785 7.29167 25.48 6.76933 25.48 6.125C25.48 5.48068 24.9785 4.95834 24.36 4.95834H23.4873Z" fill="#4CAF50"/>
<path id="Vector_2" fill-rule="evenodd" clip-rule="evenodd" d="M15.225 18.1021C16.4594 16.4575 18.586 15.6603 20.6457 16.2191C21.7412 16.5163 22.666 17.1547 23.3318 17.9976C23.7248 18.4952 23.6562 19.2304 23.1786 19.6398C22.7009 20.0492 21.9951 19.9776 21.6021 19.4801C21.2313 19.0107 20.7117 18.6481 20.0811 18.4771C18.4981 18.0476 16.9119 19.0073 16.505 20.5448C16.3931 20.9678 16.0628 21.2896 15.6502 21.3776C15.2375 21.4657 14.8123 21.3052 14.5497 20.9622L13.4044 19.4663C13.0186 18.9625 13.098 18.2285 13.5815 17.8268C14.0652 17.425 14.7699 17.5077 15.1556 18.0113L15.225 18.1021ZM22.9893 21.2051C22.5768 21.2933 22.2466 21.6149 22.1348 22.0379C21.7279 23.5753 20.1417 24.535 18.5586 24.1055C17.9275 23.9343 17.4075 23.5711 17.0366 23.101C16.6438 22.6032 15.9381 22.5312 15.4602 22.9404C14.9823 23.3494 14.9132 24.0847 15.306 24.5825C15.9718 25.4266 16.8974 26.066 17.9941 26.3635C20.0541 26.9225 22.1812 26.1248 23.4156 24.4795L23.4848 24.5699C23.8709 25.0733 24.5756 25.1554 25.0589 24.7533C25.5422 24.3512 25.6211 23.6171 25.235 23.1136L24.0896 21.6198C23.8269 21.2771 23.4017 21.1169 22.9893 21.2051Z" fill="#4CAF50"/>
<path id="Vector_3" d="M10.8253 25.8744C9.91368 25.7887 9.14956 25.6098 8.46403 25.1998C7.83494 24.8235 7.28884 24.3206 6.86286 23.7202C6.39406 23.0596 6.16051 22.3033 6.01601 21.4019C5.87578 20.5273 5.80851 19.4341 5.72429 18.0661L5.72138 18.0187L5.72122 18.016L5.06238 6.77907C5.02837 6.19887 5.01136 5.90877 5.1781 5.72522C5.34485 5.54166 5.62539 5.54166 6.18646 5.54166H22.3729C22.9347 5.54166 23.2157 5.54166 23.3825 5.72553C23.5493 5.90939 23.5318 6.19985 23.497 6.78076C23.3482 9.25795 23.2369 11.7414 23.0639 14.2177C23.0296 14.7085 23.0125 14.954 22.8666 15.048C22.7209 15.142 22.4836 15.0407 22.0088 14.8379C21.719 14.7141 21.418 14.6095 21.107 14.5256C19.0872 13.9806 17.0137 14.4122 15.4027 15.5611C15.183 15.7178 15.0731 15.7961 14.9854 15.8221C14.8978 15.8481 14.7342 15.8405 14.407 15.8251C13.7501 15.7942 13.0796 16.0004 12.525 16.4586C11.3095 17.463 11.11 19.2982 12.0795 20.5575L13.2312 22.0534C13.3787 22.2451 13.4525 22.3408 13.4754 22.384C13.5556 22.5344 13.557 22.5407 13.5443 22.7121C13.5406 22.7613 13.5116 22.8822 13.4534 23.1238C13.2932 23.7893 13.3817 24.469 13.6586 25.0799C13.8578 25.5198 13.9575 25.7397 13.8906 25.8483C13.8239 25.957 13.6183 25.9551 13.2073 25.9512C12.2463 25.9421 11.3247 25.9215 10.8253 25.8744Z" fill="#4CAF50"/>
</g>
</svg>
